<svg width="29" height="29" viewBox="0 0 29 29" fill="none" xmlns="http://www.w3.org/2000/svg">
<path d="M14.5 22.9583C14.7959 22.9584 15.0816 23.067 15.3027 23.2637C15.5239 23.4604 15.6652 23.7314 15.6998 24.0253L15.7083 24.1667V25.375C15.708 25.683 15.59 25.9792 15.3786 26.2032C15.1672 26.4271 14.8782 26.5619 14.5708 26.5799C14.2633 26.598 13.9606 26.4979 13.7244 26.3003C13.4882 26.1026 13.3365 25.8222 13.3001 25.5164L13.2916 25.375V24.1667C13.2916 23.8462 13.4189 23.5389 13.6455 23.3122C13.8721 23.0856 14.1795 22.9583 14.5 22.9583ZM22.1282 20.4329L22.2418 20.5332L23.0876 21.379C23.3043 21.5965 23.4301 21.8883 23.4395 22.1951C23.4489 22.502 23.3411 22.8009 23.138 23.0312C22.935 23.2614 22.6519 23.4058 22.3463 23.4349C22.0407 23.464 21.7355 23.3757 21.4926 23.1879L21.379 23.0876L20.5332 22.2418C20.3247 22.0336 20.1994 21.7565 20.1809 21.4624C20.1624 21.1684 20.252 20.8777 20.4328 20.6451C20.6136 20.4125 20.8732 20.2539 21.1627 20.1993C21.4522 20.1446 21.7518 20.1976 22.0049 20.3483L22.1282 20.4329ZM8.46675 20.5332C8.6748 20.7413 8.79978 21.0181 8.81825 21.3118C8.83671 21.6054 8.74739 21.8957 8.56705 22.1282L8.46675 22.2418L7.62092 23.0876C7.40347 23.3043 7.11169 23.4302 6.80483 23.4395C6.49798 23.4489 6.19906 23.3411 5.96879 23.1381C5.73853 22.935 5.59418 22.652 5.56506 22.3463C5.53595 22.0407 5.62426 21.7355 5.81205 21.4926L5.91234 21.379L6.75817 20.5332C6.98477 20.3067 7.29206 20.1794 7.61246 20.1794C7.93287 20.1794 8.24016 20.3067 8.46675 20.5332ZM4.8333 13.2917C5.14128 13.292 5.4375 13.4099 5.66145 13.6214C5.8854 13.8328 6.02016 14.1217 6.03821 14.4292C6.05626 14.7366 5.95623 15.0394 5.75856 15.2756C5.56089 15.5117 5.2805 15.6635 4.97467 15.6999L4.8333 15.7083H3.62496C3.31698 15.708 3.02076 15.5901 2.79681 15.3786C2.57286 15.1672 2.4381 14.8783 2.42005 14.5708C2.402 14.2634 2.50203 13.9606 2.6997 13.7245C2.89737 13.4883 3.17776 13.3365 3.48359 13.3001L3.62496 13.2917H4.8333ZM25.375 13.2917C25.6829 13.292 25.9792 13.4099 26.2031 13.6214C26.4271 13.8328 26.5618 14.1217 26.5799 14.4292C26.5979 14.7366 26.4979 15.0394 26.3002 15.2756C26.1026 15.5117 25.8222 15.6635 25.5163 15.6999L25.375 15.7083H24.1666C23.8586 15.708 23.5624 15.5901 23.3385 15.3786C23.1145 15.1672 22.9798 14.8783 22.9617 14.5708C22.9437 14.2634 23.0437 13.9606 23.2414 13.7245C23.439 13.4883 23.7194 13.3365 24.0253 13.3001L24.1666 13.2917H25.375ZM7.50734 5.81209L7.62092 5.91238L8.46675 6.75821C8.68347 6.97566 8.80929 7.26745 8.81866 7.5743C8.82803 7.88116 8.72024 8.18007 8.5172 8.41034C8.31416 8.64061 8.03109 8.78496 7.72547 8.81407C7.41986 8.84318 7.11462 8.75488 6.87175 8.56709L6.75817 8.4668L5.91234 7.62096C5.70461 7.41274 5.57996 7.13591 5.56176 6.84235C5.54356 6.5488 5.63304 6.25868 5.81345 6.02639C5.99386 5.7941 6.2528 5.63559 6.54172 5.58056C6.83065 5.52554 7.12972 5.57778 7.38288 5.7275L7.50734 5.81209ZM23.0876 5.91238C23.2956 6.12045 23.4206 6.39727 23.4391 6.69093C23.4575 6.98459 23.3682 7.27489 23.1879 7.50738L23.0876 7.62096L22.2418 8.4668C22.0243 8.68351 21.7325 8.80933 21.4257 8.8187C21.1188 8.82807 20.8199 8.72029 20.5896 8.51725C20.3594 8.31421 20.215 8.03113 20.1859 7.72551C20.1568 7.4199 20.2451 7.11466 20.4329 6.8718L20.5332 6.75821L21.379 5.91238C21.6056 5.68585 21.9129 5.5586 22.2333 5.5586C22.5537 5.5586 22.861 5.68585 23.0876 5.91238ZM14.5 2.41667C14.7959 2.41671 15.0816 2.52537 15.3027 2.72204C15.5239 2.9187 15.6652 3.1897 15.6998 3.48363L15.7083 3.62501V4.83334C15.708 5.14132 15.59 5.43754 15.3786 5.66149C15.1672 5.88544 14.8782 6.02021 14.5708 6.03825C14.2633 6.0563 13.9606 5.95627 13.7244 5.7586C13.4882 5.56093 13.3365 5.28054 13.3001 4.97471L13.2916 4.83334V3.62501C13.2916 3.30454 13.4189 2.99719 13.6455 2.77058C13.8721 2.54398 14.1795 2.41667 14.5 2.41667ZM14.5 8.45834C15.6837 8.45827 16.8415 8.80596 17.8293 9.45823C18.8172 10.1105 19.5917 11.0386 20.0566 12.1273C20.5215 13.2159 20.6563 14.4172 20.4443 15.5818C20.2324 16.7465 19.6829 17.8232 18.8643 18.6782C18.0456 19.5333 16.9938 20.129 15.8394 20.3914C14.6851 20.6538 13.4791 20.5713 12.3713 20.1541C11.2634 19.737 10.3026 19.0036 9.60798 18.045C8.91339 17.0864 8.51571 15.9449 8.46434 14.7622L8.4583 14.5L8.46434 14.2378C8.53191 12.6824 9.19732 11.2131 10.3218 10.1363C11.4463 9.05953 12.9431 8.45843 14.5 8.45834Z" fill="#BFBFBF"/>
</svg>
