<svg width="24" height="24" viewBox="0 0 24 24" fill="none" xmlns="http://www.w3.org/2000/svg">
<g clip-path="url(#clip0_1_56)">
<path d="M3.41667 7.66667H12.625C13.1281 7.6763 13.624 7.54555 14.057 7.28911C14.49 7.03267 14.8429 6.66066 15.0763 6.21482C15.3097 5.76898 15.4142 5.26693 15.3782 4.76499C15.3422 4.26306 15.167 3.78108 14.8724 3.37313C14.5778 2.96517 14.1753 2.64737 13.7101 2.45537C13.245 2.26337 12.7355 2.20477 12.2389 2.28613C11.7423 2.36749 11.2782 2.58561 10.8986 2.91601C10.5191 3.2464 10.239 3.67602 10.09 4.15667M1.25 12H18.0417C18.5448 11.9904 19.0407 12.1211 19.4737 12.3776C19.9066 12.634 20.2596 13.006 20.493 13.4519C20.7263 13.8977 20.8309 14.3997 20.7949 14.9017C20.7589 15.4036 20.5837 15.8856 20.2891 16.2935C19.9944 16.7015 19.592 17.0193 19.1268 17.2113C18.6616 17.4033 18.1522 17.4619 17.6556 17.3805C17.159 17.2992 16.6949 17.0811 16.3153 16.7507C15.9357 16.4203 15.6557 15.9906 15.5067 15.51M2.33333 16.3333H8.29167C8.7948 16.3237 9.29067 16.4544 9.72365 16.7109C10.1566 16.9673 10.5096 17.3393 10.743 17.7852C10.9763 18.231 11.0809 18.7331 11.0449 19.235C11.0089 19.7369 10.8337 20.2189 10.5391 20.6269C10.2444 21.0348 9.84197 21.3526 9.37681 21.5446C8.91165 21.7366 8.4022 21.7952 7.90559 21.7139C7.40898 21.6325 6.94487 21.4144 6.5653 21.084C6.18573 20.7536 5.90571 20.324 5.75667 19.8433" stroke="#BFBFBF" stroke-width="2" stroke-linecap="round" stroke-linejoin="round"/>
</g>
<defs>
<clipPath id="clip0_1_56">
<rect width="24" height="24" fill="white"/>
</clipPath>
</defs>
</svg>
